<?xml version="1.0" standalone="no"?>
<!DOCTYPE svg PUBLIC "-//W3C//DTD SVG 20010904//EN"
 "http://www.w3.org/TR/2001/REC-SVG-20010904/DTD/svg10.dtd">
<svg version="1.0" xmlns="http://www.w3.org/2000/svg"
 width="16.000000pt" height="16.000000pt" viewBox="0 0 16.000000 16.000000"
 preserveAspectRatio="xMidYMid meet">
<metadata>
Created by potrace 1.11, written by Peter Selinger 2001-2013
</metadata>
<g transform="translate(0.000000,16.000000) scale(0.002286,-0.002286)"
fill="#000000" stroke="none">
<path d="M71 6982 c-19 -10 -43 -34 -53 -53 -17 -32 -18 -159 -18 -3412 0
-3718 -5 -3426 62 -3467 33 -20 40 -20 3438 -20 3398 0 3405 0 3438 20 67 41
62 -251 62 3467 0 3253 -1 3380 -18 3412 -10 19 -34 43 -53 53 -32 17 -160 18
-3429 18 -3269 0 -3397 -1 -3429 -18z m3519 -1381 c0 -28 0 -29 -147 -65 -82
-20 -165 -41 -185 -47 l-38 -10 0 -1994 0 -1995 550 0 550 0 0 43 c0 62 26
213 51 293 44 145 155 338 264 462 39 44 52 52 81 52 29 0 34 -3 30 -17 -3
-10 -10 -82 -17 -160 -13 -154 -7 -661 9 -746 l9 -47 -1209 0 -1208 0 0 29 c0
28 0 29 148 65 81 20 164 41 185 47 l37 10 0 1979 0 1979 -37 10 c-21 6 -104
27 -185 47 -148 36 -148 37 -148 65 l0 29 630 0 630 0 0 -29z"/>
</g>
</svg>
