<?xml version="1.0" encoding="UTF-8" standalone="no"?>
<svg width="200px" height="87px" viewBox="0 0 200 87" version="1.1" xmlns="http://www.w3.org/2000/svg" xmlns:xlink="http://www.w3.org/1999/xlink">
    <!-- Generator: Sketch 42 (36781) - http://www.bohemiancoding.com/sketch -->
    <title>Lukin</title>
    <desc>Created with Sketch.</desc>
    <defs></defs>
    <g id="Page-1" stroke="none" stroke-width="1" fill="none" fill-rule="evenodd">
        <g id="Lukin">
            <rect id="Rectangle" fill="#0071BC" x="0" y="-2.84217094e-14" width="200" height="86.6666667" rx="5"></rect>
            <path d="M30.2298132,67.6904407 L43.7564778,67.6904407 C43.7564778,65.5894513 44.182313,63.6385618 45.0339961,61.8377137 C45.8856792,60.0368656 46.9627918,58.4861586 48.265366,57.1855461 L49.0168474,57.1855461 C48.9166493,57.8358523 48.8415019,58.5111602 48.7914029,59.21149 C48.7413039,59.8117727 48.7037302,60.4620692 48.6786807,61.162399 C48.6536312,61.8627289 48.6411067,62.5380368 48.6411067,63.188343 C48.6411067,64.1387906 48.6536312,64.9766726 48.6786807,65.7020142 C48.7037302,66.4273558 48.7413039,67.0651466 48.7914029,67.6154058 C48.8415019,68.2156885 48.9166493,68.7409279 49.0168474,69.19114 L19.3333333,69.19114 L19.3333333,68.4407903 L23.8422215,67.3152659 L23.8422215,18.5425407 L19.3333333,17.4170163 L19.3333333,16.6666667 L34.7387014,16.6666667 L34.7387014,17.4170163 L30.2298132,18.5425407 L30.2298132,67.6904407 Z M82.0820275,36.5509316 L82.0820275,67.3152659 L86.5909157,68.4407903 L86.5909157,69.19114 L76.0701766,69.19114 L76.0701766,64.6890422 C75.5190875,65.739537 74.8177119,66.6899703 73.9660288,67.5403708 C73.2646426,68.2407006 72.3753986,68.8784914 71.2982699,69.4537623 C70.2211412,70.0290332 68.9311111,70.3166644 67.4281409,70.3166644 C65.9251706,70.3166644 64.534944,70.0415389 63.2574193,69.4912798 C61.9798946,68.9410207 60.8652083,68.1781729 59.9133272,67.2027135 C58.961446,66.2272541 58.2224967,65.0517181 57.6964571,63.6760703 C57.1704176,62.3004224 56.9074017,60.7622211 56.9074017,59.0614201 L56.9074017,36.5509316 L52.3985135,35.4254071 L52.3985135,34.6750575 L67.0524002,34.6750575 L67.0524002,35.4254071 L62.9192526,36.5509316 L62.9192526,59.0614201 C62.9192526,62.6130927 63.482858,65.1267388 64.6100857,66.6024338 C65.7373134,68.0781287 67.0523927,68.8159652 68.5553629,68.8159652 C69.7577391,68.8159652 70.8223271,68.4658055 71.7491587,67.7654757 C72.6759904,67.0651459 73.4650379,66.2897924 74.116325,65.4393919 C74.8678102,64.4889443 75.5190875,63.3634311 76.0701766,62.0628186 L76.0701766,36.5509316 L71.9370291,35.4254071 L71.9370291,34.6750575 L86.5909157,34.6750575 L86.5909157,35.4254071 L82.0820275,36.5509316 Z M101.996284,56.9604412 L101.996284,67.3152659 L106.129431,68.4407903 L106.129431,69.19114 L91.4755446,69.19114 L91.4755446,68.4407903 L95.9844328,67.3152659 L95.9844328,18.5425407 L91.4755446,17.4170163 L91.4755446,16.6666667 L101.996284,16.6666667 L101.996284,54.9344972 L114.395726,37.3012812 L109.511097,35.4254071 L109.511097,34.6750575 L120.783318,34.6750575 L120.783318,35.4254071 L115.898689,37.3012812 L108.60932,47.6561059 L120.407577,67.3152659 L124.916465,68.4407903 L124.916465,69.19114 L109.511097,69.19114 L109.511097,68.4407903 L113.644245,67.3152659 L104.927061,52.8335183 L101.996284,56.9604412 Z M130.928316,67.3152659 L130.928316,36.5509316 L126.419428,35.4254071 L126.419428,34.6750575 L136.940167,34.6750575 L136.940167,67.3152659 L141.449056,68.4407903 L141.449056,69.19114 L126.419428,69.19114 L126.419428,68.4407903 L130.928316,67.3152659 Z M137.315908,26.0460369 C137.315908,26.9964845 136.927647,27.8593779 136.151112,28.6347431 C135.374577,29.4101082 134.510382,29.797785 133.558501,29.797785 C132.60662,29.797785 131.742425,29.4101082 130.96589,28.6347431 C130.189356,27.8593779 129.801094,26.9964845 129.801094,26.0460369 C129.801094,25.0955893 130.189356,24.2326959 130.96589,23.4573307 C131.742425,22.6819656 132.60662,22.2942888 133.558501,22.2942888 C134.510382,22.2942888 135.374577,22.6819656 136.151112,23.4573307 C136.927647,24.2326959 137.315908,25.0955893 137.315908,26.0460369 Z M150.466832,67.3152659 L150.466832,36.5509316 L145.957944,35.4254071 L145.957944,34.6750575 L156.478683,34.6750575 L156.478683,39.1771552 C156.979673,38.1766841 157.655999,37.2512621 158.507683,36.4008616 C159.209069,35.7005318 160.110837,35.0502353 161.213016,34.4499526 C162.315194,33.8496699 163.617748,33.5495331 165.120719,33.5495331 C166.623689,33.5495331 168.013916,33.8246585 169.29144,34.3749177 C170.568965,34.9251768 171.683651,35.6880246 172.635532,36.663484 C173.587413,37.6389434 174.326363,38.8144794 174.852402,40.1901272 C175.378442,41.5657751 175.641458,43.1039764 175.641458,44.8047774 L175.641458,67.3152659 L180.150346,68.4407903 L180.150346,69.19114 L165.496459,69.19114 L165.496459,68.4407903 L169.629607,67.3152659 L169.629607,44.8047774 C169.629607,41.2531047 169.066001,38.7394587 167.938774,37.2637637 C166.811546,35.7880687 165.496467,35.0502323 163.993497,35.0502323 C162.741021,35.0502323 161.663909,35.400392 160.762127,36.1007218 C159.860345,36.8010516 159.083822,37.5764051 158.432534,38.4268056 C157.681049,39.4272768 157.029772,40.5527899 156.478683,41.8033789 L156.478683,67.3152659 L160.61183,68.4407903 L160.61183,69.19114 L145.957944,69.19114 L145.957944,68.4407903 L150.466832,67.3152659 Z" fill="#FFFFFF"></path>
        </g>
    </g>
</svg>